<?xml version="1.0" encoding="UTF-8"?>
<!DOCTYPE svg PUBLIC "-//W3C//DTD SVG 1.1//EN" "http://www.w3.org/Graphics/SVG/1.1/DTD/svg11.dtd">
<!-- Creator: CorelDRAW X7 -->
<svg xmlns="http://www.w3.org/2000/svg" xml:space="preserve" width="2125px" height="2125px" version="1.1" style="shape-rendering:geometricPrecision; text-rendering:geometricPrecision; image-rendering:optimizeQuality; fill-rule:evenodd; clip-rule:evenodd"
viewBox="0 0 2125 2125"
 xmlns:xlink="http://www.w3.org/1999/xlink">
 <defs>
  <style type="text/css">
   <![CDATA[
    .fil0 {fill:#FEFEFE}
   ]]>
  </style>
 </defs>
 <g id="Layer_x0020_1">
  <metadata id="CorelCorpID_0Corel-Layer"/>
  <g id="_614208032">
   <path class="fil0" d="M1061 0c497,0 918,309 1063,737l-185 0 2 -1c-26,-61 -54,-118 -92,-165l-177 0c18,55 31,110 42,165l3 1 -181 0c-9,-62 -28,-116 -49,-166l-853 0c-22,55 -37,111 -48,166l-179 0c11,-55 24,-110 43,-165l-177 0c-38,46 -66,104 -92,165l-182 0c144,-428 565,-737 1062,-737zm1062 1390c-144,427 -565,735 -1062,735 -496,0 -917,-308 -1062,-735l181 0c25,60 53,117 91,163l177 0c-18,-54 -31,-108 -42,-163l179 0c10,55 25,110 47,164l854 0c21,-49 39,-103 48,-164l178 0c-11,55 -24,110 -42,164l177 0c38,-46 66,-104 92,-164l184 0zm-1535 450c-59,-32 -118,-67 -173,-125l100 0c22,46 48,85 73,125zm1 -1555c-59,33 -117,68 -173,126l101 0c22,-47 47,-86 72,-126zm942 1555c59,-33 118,-67 173,-126l-100 0c-22,47 -47,86 -73,126zm2 -1554c59,32 118,67 173,125l-101 0c-21,-46 -47,-86 -72,-125zm-824 1428l700 0c-97,152 -209,248 -347,249 -160,-5 -266,-108 -353,-249zm2 -1303l700 0c-97,-151 -209,-247 -347,-248 -160,4 -267,107 -353,248z"/>
   <polygon class="fil0" points="1,891 150,1239 272,1239 352,1016 433,1239 554,1239 706,891 582,891 492,1119 414,891 293,891 211,1119 122,891 "/>
   <polygon class="fil0" points="709,891 858,1239 980,1239 1060,1015 1141,1239 1262,1239 1414,891 1290,891 1200,1119 1122,891 1001,891 919,1119 830,891 "/>
   <polygon class="fil0" points="1417,891 1566,1239 1688,1239 1768,1015 1849,1239 1970,1239 2122,891 1998,891 1908,1119 1830,891 1709,891 1627,1119 1538,891 "/>
  </g>
 </g>
</svg>
