<?xml version="1.0" encoding="UTF-8"?>
<!DOCTYPE svg PUBLIC "-//W3C//DTD SVG 1.1//EN" "http://www.w3.org/Graphics/SVG/1.1/DTD/svg11.dtd">
<!-- Creator: CorelDRAW X7 -->
<svg xmlns="http://www.w3.org/2000/svg" xml:space="preserve" width="2125px" height="2125px" version="1.1" style="shape-rendering:geometricPrecision; text-rendering:geometricPrecision; image-rendering:optimizeQuality; fill-rule:evenodd; clip-rule:evenodd"
viewBox="0 0 2125 2125"
 xmlns:xlink="http://www.w3.org/1999/xlink">
 <defs>
  <style type="text/css">
   <![CDATA[
    .fil0 {fill:#FEFEFE}
   ]]>
  </style>
 </defs>
 <g id="Layer_x0020_1">
  <metadata id="CorelCorpID_0Corel-Layer"/>
  <g id="_614635120">
   <path class="fil0" d="M307 1l1513 0c168,0 306,137 306,306l0 1513c0,168 -138,306 -306,306l-1513 0c-168,0 -306,-138 -306,-306l0 -1513c0,-169 138,-306 306,-306zm-188 838l385 0c104,-199 313,-335 553,-335 241,0 450,136 554,335l384 0 -1 974c-2,113 -82,185 -187,188l-1480 0c-141,-1 -215,-86 -208,-217l0 -945zm1492 -618l226 0c39,0 71,32 71,71l0 225c0,39 -32,71 -71,71l-226 0c-39,0 -71,-32 -71,-71l0 -225c0,-39 32,-71 71,-71z"/>
   <path class="fil0" d="M1057 499c345,0 625,279 625,623 0,344 -280,623 -625,623 -344,0 -624,-279 -624,-623 0,-344 280,-623 624,-623zm0 158c258,0 468,210 468,468 0,259 -210,468 -468,468 -259,0 -469,-209 -469,-468 0,-258 210,-468 469,-468z"/>
  </g>
 </g>
</svg>
